<?xml version="1.0" encoding="utf-8"?>
<!-- Generator: Adobe Illustrator 24.0.2, SVG Export Plug-In . SVG Version: 6.00 Build 0)  -->
<svg version="1.1" id="Warstwa_2" xmlns="http://www.w3.org/2000/svg" xmlns:xlink="http://www.w3.org/1999/xlink" x="0px" y="0px"
	 viewBox="0 0 1219.7733154 1830.8441162" style="enable-background:new 0 0 1219.7733154 1830.8441162;" xml:space="preserve">
<style type="text/css">
	.st0{fill:#DA4531;stroke:#010202;stroke-width:5;stroke-miterlimit:10;}
	.st1{fill:#FCDF86;stroke:#010202;stroke-width:5;stroke-miterlimit:10;}
	.st2{fill:#F18643;stroke:#010202;stroke-width:5;stroke-miterlimit:10;}
	.st3{fill:#408DCC;stroke:#010202;stroke-width:5;stroke-miterlimit:10;}
	.st4{fill:none;stroke:#010202;stroke-width:5;stroke-miterlimit:10;}
	.st5{fill:#276794;stroke:#010202;stroke-width:5;stroke-miterlimit:10;}
</style>
<g>
	<g>
		<path class="st0" d="M753.991394,1360.1856689c0.8966675-0.4631348,56.882019,42.6882324,53.5626831,162.1845703
			c0,0-2.6554565,34.5211182-19.2521362,43.1513672c-16.5967407,8.6303711-63.7313843-54.4371338-63.7313843-54.4371338
			s36.5127563,154.6812744-207.1268311,211.1101074c0,0,62.4035645-53.1094971,39.8320923-108.2105713
			c0,0-5.0827637-24.0452881-41.9326172-57.7844238c-14.6913452-13.4511719-28.6618652-27.6689453-41.6228638-42.7945557
			l-1.4196777-1.6567383c0,0-15.9328308,49.7901611-49.7901001,55.1010742c0,0-70.6374817-51.7817383,24.0974731-180.5721436
			l15.0761719-26.0952148L753.991394,1360.1856689z"/>
		<path class="st1" d="M660.689209,1388.1834717l7.9242554,25.4445801c0,0,29.7177124,84.0587158-50.9447021,135.852417
			c0,0-94.2476196-27.8059082-70.0488892-132.986084l8.7053833-28.3109131"/>
	</g>
	<g>
		<path class="st1" d="M673.8190918,320.4751587c-19.0998535-23.3582153-49.8805542-140.1079559-49.8805542-140.1079559
			l-35.9238892,4.7256775c0,0-26.0866089,109.8545074-47.34729,133.0967255L673.8190918,320.4751587z"/>
		
			<ellipse transform="matrix(0.8786336 -0.4774967 0.4774967 0.8786336 7.0867043 306.710144)" class="st1" cx="606.894165" cy="139.4143219" rx="53.976593" ry="44.2873039"/>
	</g>
	<g>
		<path class="st2" d="M996.911438,1362.6992188c-42.1166992-135.3753662-133.9402466-206.2341309-133.9402466-206.2341309
			c-22.9416504,61.0859375-59.6310425,137.5037842-94.076416,195.0292969
			c75.4136963,10.0734863,139.9696045,22.7497559,220.1213379,65L996.911438,1362.6992188z"/>
		<path class="st1" d="M1111.4610596,1269.5300293c29.4256592,77.3641357-107.6289673,204.5623779-123.5126343,141.630249
			c-0.6564331-26.6000977,24.5528564-128.2336426,87.5527954-158.1982422
			C1090.0888672,1248.03479,1105.9229736,1255.1662598,1111.4610596,1269.5300293z"/>
	</g>
	<g>
		<path class="st2" d="M215.5266418,1362.6992188c42.1166992-135.3753662,133.9402466-206.2341309,133.9402466-206.2341309
			c22.9416199,61.0859375,59.6310425,137.5037842,94.076416,195.0292969
			c-75.4136658,10.0734863-139.969635,22.7497559-220.1213684,65L215.5266418,1362.6992188z"/>
		<path class="st1" d="M100.977005,1269.5300293c-29.4256744,77.3641357,107.628952,204.5623779,123.5126343,141.630249
			c0.6564484-26.6000977-24.5528259-128.2336426-87.5528107-158.1982422
			C122.3492584,1248.03479,106.5151215,1255.1662598,100.977005,1269.5300293z"/>
	</g>
	<g>
		<g>
			<path class="st3" d="M596.7598877,306.2452698c6.147583,0.0135193,12.2838135-0.2964478,18.4313354-0.3207703
				c23.9941406-0.0948792,100.9842529,7.9288025,213.6716309,153.9461975
				c136.5906982,176.9908142,106.7716064,395.3435974,106.7716064,395.3435974s-1.5685425,18.5809937-6.2011719,49.4613647
				c-16.9644165,113.0806274-50.1817627,223.1066895-98.1988525,326.8823242
				c-23.8161621,51.4719238-53.2349243,112.4151611-62.3397217,119.9365234c0,0-56.7242432,40.7385254-161.3082886,40.041626
				s-169.3933411-43.9029541-169.3933411-43.9029541s-57.8404846-108.7122803-90.5935364-194.4277344
				c0,0-67.5967407-165.1590576-71.7779846-328.9243164s48.7811584-261.3275757,48.7811584-261.3275757
				S450.6366882,305.9237061,596.7598877,306.2452698z"/>
			<path class="st2" d="M917.9421387,643.6240845c-7.3850098-28.7626953-19.0791016-63.9827271-38.1157227-102.0457764
				c-16.550293-33.0917664-34.623291-60.2805481-50.963623-81.7076111
				C716.1755371,313.853302,639.1854248,305.8295898,615.1912842,305.9244995
				c-6.147583,0.024292-12.2838135,0.3342896-18.4313965,0.3207703
				c-146.1231995-0.3215942-272.157135,256.7083435-272.157135,256.7083435
				c-6.0252686,12.6416016-12.0808105,26.9086914-17.6627197,42.7371216
				c-5.9165039,16.7771606-10.3242188,32.538269-13.6378174,46.8543091c0,0,123.9872131-102.201416,314.2842102-102.201416
				S917.9421387,643.6240845,917.9421387,643.6240845z"/>
		</g>
		<path class="st4" d="M378.5389099,1226.1330566c0,0,228.4487,102.6569824,449.6639099,11.9624023"/>
	</g>
	<g>
		<circle class="st1" cx="606.9876099" cy="872.4905396" r="210.7973022"/>
		<circle class="st5" cx="606.9876099" cy="872.4905396" r="124.2389145"/>
		<g>
			<circle class="st2" cx="609.0535889" cy="713.5147095" r="22.1143684"/>
			<circle class="st2" cx="609.0535889" cy="1039.7612305" r="22.1143684"/>
			<circle class="st2" cx="744.8201294" cy="968.9210815" r="22.1143684"/>
			<circle class="st2" cx="468.7223816" cy="968.9210815" r="22.1143684"/>
			<circle class="st2" cx="755.5150757" cy="801.3670654" r="22.1143684"/>
			<circle class="st2" cx="460.6343384" cy="801.3670654" r="22.1143684"/>
		</g>
	</g>
</g>
</svg>
