<?xml version="1.0" encoding="UTF-8"?>
<svg width="30mm" height="30mm" version="1.1" viewBox="0 0 106.29921 106.29921" xmlns="http://www.w3.org/2000/svg" xmlns:xlink="http://www.w3.org/1999/xlink">
 <defs>
  <pattern id="m" patternTransform="matrix(.875 0 0 .925 141.63 984.24)" xlink:href="#a"/>
  <pattern id="a" width="10" height="10" patternTransform="translate(0) scale(10)" patternUnits="userSpaceOnUse">
   <circle cx="2.567" cy=".81" r=".45"/>
   <circle cx="3.048" cy="2.33" r=".45"/>
   <circle cx="4.418" cy="2.415" r=".45"/>
   <circle cx="1.844" cy="3.029" r=".45"/>
   <circle cx="6.08" cy="1.363" r=".45"/>
   <circle cx="5.819" cy="4.413" r=".45"/>
   <circle cx="4.305" cy="4.048" r=".45"/>
   <circle cx="5.541" cy="3.045" r=".45"/>
   <circle cx="4.785" cy="5.527" r=".45"/>
   <circle cx="2.667" cy="5.184" r=".45"/>
   <circle cx="7.965" cy="1.448" r=".45"/>
   <circle cx="7.047" cy="5.049" r=".45"/>
   <circle cx="4.34" cy=".895" r=".45"/>
   <circle cx="7.125" cy=".34" r=".45"/>
   <circle cx="9.553" cy="1.049" r=".45"/>
   <circle cx="7.006" cy="2.689" r=".45"/>
   <circle cx="8.909" cy="2.689" r=".45"/>
   <circle cx="9.315" cy="4.407" r=".45"/>
   <circle cx="7.82" cy="3.87" r=".45"/>
   <circle cx="8.27" cy="5.948" r=".45"/>
   <circle cx="7.973" cy="7.428" r=".45"/>
   <circle cx="9.342" cy="8.072" r=".45"/>
   <circle cx="8.206" cy="9.315" r=".45"/>
   <circle cx="9.682" cy="9.475" r=".45"/>
   <circle cx="9.688" cy="6.186" r=".45"/>
   <circle cx="3.379" cy="6.296" r=".45"/>
   <circle cx="2.871" cy="8.204" r=".45"/>
   <circle cx="4.59" cy="8.719" r=".45"/>
   <circle cx="3.181" cy="9.671" r=".45"/>
   <circle cx="5.734" cy="7.315" r=".45"/>
   <circle cx="6.707" cy="6.513" r=".45"/>
   <circle cx="5.73" cy="9.67" r=".45"/>
   <circle cx="6.535" cy="8.373" r=".45"/>
   <circle cx="4.37" cy="7.154" r=".45"/>
   <circle cx=".622" cy="7.25" r=".45"/>
   <circle cx=".831" cy="5.679" r=".45"/>
   <circle cx="1.257" cy="8.519" r=".45"/>
   <circle cx="1.989" cy="6.877" r=".45"/>
   <circle cx=".374" cy="3.181" r=".45"/>
   <circle cx="1.166" cy="1.664" r=".45"/>
   <circle cx="1.151" cy=".093" r=".45"/>
   <circle cx="1.151" cy="10.093" r=".45"/>
   <circle cx="1.302" cy="4.451" r=".45"/>
   <circle cx="3.047" cy="3.763" r=".45"/>
  </pattern>
  <pattern id="l" patternTransform="matrix(.85 0 0 1.05 137.63 984.24)" xlink:href="#a"/>
  <pattern id="k" xlink:href="#i" patternTransform="matrix(.525 .7 -1.9 1.425 141.63 976.24)"/>
  <pattern id="i" width="2" height="1" patternTransform="translate(0) scale(10)" patternUnits="userSpaceOnUse">
   <rect y="-.5" width="1" height="2"/>
  </pattern>
  <pattern id="j" patternTransform="matrix(.8 0 0 .925 128.46 978.59)" xlink:href="#a"/>
  <radialGradient id="n" cx="92.127" cy="961.29" r="11.544" gradientTransform="matrix(.72857 -.70605 .95696 .98747 -893.97 76.034)" gradientUnits="userSpaceOnUse">
   <stop stop-color="#ffadad" offset="0"/>
   <stop stop-color="#e30707" offset=".28572"/>
   <stop stop-color="#e30707" offset=".42814"/>
   <stop stop-color="#e30707" offset=".62305"/>
   <stop stop-color="#9b0000" offset="1"/>
  </radialGradient>
  <radialGradient id="o" cx="28.83" cy="1020.5" r="19.424" gradientTransform="matrix(.92522 .95259 -2.5681 2.4943 2626.3 -1554.2)" gradientUnits="userSpaceOnUse">
   <stop stop-color="#ffdc00" offset="0"/>
   <stop stop-color="#ff6f00" offset=".18093"/>
   <stop stop-color="#ffc700" offset=".37298"/>
   <stop stop-color="#ffc100" offset=".50253"/>
   <stop stop-color="#ffae00" offset="1"/>
  </radialGradient>
 </defs>
 <g transform="translate(0 -946.06)" fill-rule="evenodd">
  <path d="m45.633 988.69-14.566-2.2409 17.741-14.94 12.885 0.74699 18.114-18.861 22.596-2.6144c-0.52062 11.126-1.8392 15.07-2.8012 22.223l-19.422 18.861 1.494 13.819-18.861 18.301 0.56024-16.62-5.9759-2.4277-0.74698 5.2288-1.1205 0.5603-0.74698 4.1084-1.6807-0.5603-0.74698 3.735c-3.4024-0.3932-6.8077-4.1537-11.018-7.8434-1.0578-0.6063-1.9708-1.558-2.7718-2.6658-1.3258-1.8337-2.3444-4.0949-3.2041-5.9245l1.494-1.6807h2.2409v-1.8674l4.1084-0.18677-0.56024-1.494 5.0421-1.8675z" fill="#b2cdea" stroke="#00f" stroke-width=".35433"/>
  <path d="m35.922 1002.7c-5.8625 1.4288-10.474 2.937-14.193 6.1625-5.4398 7.8722-7.5573 13.828-10.084 20.729l-1.8675 11.578c3.0585 0.7221 6.5335 0.1945 10.084-0.5603 6.1476-2.4052 11.079-2.9866 19.982-9.5241 2.6832-2.0314 5.5507-3.4176 7.2831-8.777 0.46957-2.2693 1.1143-4.3635 1.1205-7.0963-5.3271-2.3145-9.4397-5.9883-12.325-12.512z" fill="url(#o)" stroke="#0ff" stroke-width=".35433"/>
  <path d="m82.625 968.74c-1.805-1.4793-5.5267-2.2005-7.125-0.5-1.9424 2.0666-2.268 6.6575-0.5 8.875 1.859 2.3316 6.5498 4.0129 8.75 2 2.7497-2.5156 1.7574-8.0127-1.125-10.375z" fill="#ffac00" stroke="#00f" stroke-width=".35433"/>
  <g stroke-width=".35433">
   <path d="m74.375 968.49s-4.7687 5.0246-1.375 9.75c3.9504 5.5006 10.25 1.75 10.25 1.75s-4.785 1.2486-8.375-3c-1.8319-2.1679-0.5-8.5-0.5-8.5z" fill="#859db7" stroke="#008080"/>
   <path d="m79.903 953.37 22.627-2.8284c-0.72457 8.1557-1.8126 15.584-3.0052 22.804 0 0-9.5061-4.9773-13.081-8.8388-2.6715-2.8853-6.5407-11.137-6.5407-11.137z" fill="url(#n)" stroke="#00f"/>
   <path d="m49.232 995.17-7.3362 0.88388 0.61872 1.7678-3.4471 0.53033-0.17678 1.591-3.7123 0.70709s3.1998 6.3953 5.5685 9.0156c2.9875 3.3049 10.607 8.1318 10.607 8.1318l1.6794-0.8839 0.53033-3.0052 1.4142 0.6187 0.61872-3.8891 1.5026-0.088 0.44194-5.3917-4.5078-3.3587-12.993 4.5962-1.2374-1.1491z" fill="#737373" stroke="#00f"/>
  </g>
  <g transform="translate(-125.63 -28.239)" opacity=".247" stroke-width=".35433">
   <path d="m208.26 996.98c-1.805-1.4793-5.5267-2.2005-7.125-0.5-1.9424 2.0666-2.268 6.6575-0.5 8.875 1.859 2.3316 6.5498 4.0129 8.75 2 2.7497-2.5156 1.7574-8.0127-1.125-10.375z" fill="url(#l)" stroke="#00f"/>
   <path d="m200.01 996.73s-4.7687 5.0246-1.375 9.75c3.9504 5.5006 10.25 1.75 10.25 1.75s-4.785 1.2486-8.375-3c-1.8319-2.1679-0.5-8.5-0.5-8.5z" fill="url(#k)" stroke="#008080"/>
   <path d="m205.54 981.61 22.627-2.8284c-0.72457 8.1557-1.8126 15.584-3.0052 22.804 0 0-9.5061-4.9773-13.081-8.8388-2.6715-2.8853-6.5407-11.137-6.5407-11.137z" fill="url(#m)" stroke="#00f"/>
   <path d="m174.87 1023.4-7.3362 0.8838 0.61871 1.7678-3.4471 0.5303-0.17678 1.591-3.7123 0.7071s3.1998 6.3953 5.5685 9.0156c2.9875 3.3049 10.607 8.1318 10.607 8.1318l1.6794-0.8839 0.53033-3.0052 1.4142 0.6187 0.61872-3.8891 1.5026-0.088 0.44194-5.3917-4.5078-3.3587-12.993 4.5962-1.2374-1.1491z" fill="url(#j)" stroke="#00f"/>
  </g>
  <path transform="translate(0 946.06)" d="m103.47 3.582c-8.0233 0.89463-16.27 1.8014-23.82 2.6348-6.153 6.4194-13.056 13.035-19.496 19.424-3.6763-0.39219-7.7236-0.59921-11.529-0.86133l-19.879 16.307 15.271 2.1797c0.04517 0.61554 0.20096 1.2112 0.42188 1.8301 0.37762 1.0578 0.95106 2.1851 1.6348 3.332-1.4285 0.15233-2.8565 0.27492-4.248 0.60156-0.23535 0.12922-0.50373 0.32215-0.7168 0.6543-0.1499 0.23367-0.15934 0.53142-0.18555 0.8125-0.8609-0.0238-1.6546 0.13058-2.416 0.43555-0.27118 0.17146-0.57836 0.73778-0.69531 1.2598-2.2373 0.33842-1.6142 0.22044-2.2383 0.33984l-0.79102 0.42578c-0.50167 0.51689-0.62288 1.1988-0.60156 1.707 0.02942 0.6631 0.25471 1.1646 0.45508 1.7109-2.2634 0.6541-4.6568 1.2658-6.8711 2.0078-2.6285 0.8809-4.8266 2.0863-6.4551 3.7148 0 0-0.0087 0.0098-0.01172 0.0098-0.0032 0-0.0078 0.01172-0.0078 0.01172-7.2786 10.936-11.077 21.65-12.438 33.018l-0.11328 0.95703 0.95898 0.08789c13.169 1.1895 24.992-6.6051 32.08-11.578 7.0885-4.973 6.0979-10.553 7.0508-12.982 1.4149 0.8112 0.98899 0.61635 1.4141 0.81055s0.83412 0.34894 1.3359 0.40234c0.50182 0.054 1.2493-0.03989 1.7812-0.58789l0.38281-0.69922 0.4668-1.9688c0.58552 0.1381 0.889-0.03866 1.2598-0.44336 0.14085-0.2776 0.25385-0.88773 0.29688-1.1113 0 0 0.38732-1.7165 0.37109-2.623 0.44955-0.025 0.94184-0.17181 1.2598-0.44531 0 0 0.50976-0.56474 0.50976-0.96484l0.36524-3.209c1.4303 0.8102 3.0029 1.589 4.3789 1.9746l-0.63087 17.394 20.512-20.508-0.91016-13.285c6.3882-6.2992 13.181-13.084 19.295-19.332zm-2.2559 2.3203s1.0847 6.6836-1.1738 9.8379c-2.0651 2.8841-1.3105 10.188-1.3105 10.188-0.77374-0.34454-2.8126-1.6202-3.9336-2.2988-2.3996-1.4527-5.1578-3.4629-6.5547-4.8711-1.4071-1.4184-3.4154-4.1722-4.8574-6.5684-0.68307-1.135-1.0274-1.4201-1.3574-2.1934zm-20.641 4.748c0.40342 0.86558 0.4299 1.1479 1.0391 2.1602 1.5438 2.5652 3.5504 5.3742 5.293 7.1309 1.7527 1.7669 4.5704 3.7721 7.1309 5.3223 1.0636 0.64394 2.8854 1.5424 3.7734 1.959l-34.08 32.67c-3.5889-0.82993-7.0012-3.1176-9.3979-5.311-2.804 1.0401-9.1566 3.2822-11.015 4.1215l17.393-15.92 5.2754-2.8359 1.2031-0.99024-2.3164-2.2988-6.3984 3.5918-8.9141 8.0645c-1.3077-1.3622-2.1348-3.2366-2.3789-4.2285 5.8594-5.2117 12.081-11.862 17.295-18.566 4.9615-6.3797 11.537-12.586 16.098-14.869zm-2.1289 9.8145c-2.0096-0.0785-4.0031 0.60687-5.502 2.0938-2.9977 2.9737-2.8077 7.9581 0.30859 11.1s8.096 3.3702 11.094 0.39648c2.9977-2.9737 2.8097-7.9581-0.30664-11.1-1.5582-1.5708-3.5842-2.4118-5.5938-2.4902zm-0.04492 1.8594c1.5272 0.0636 3.0837 0.71249 4.3105 1.9492 2.3141 2.3328 2.5227 5.8174 0.67188 8.0586-0.97352 0.61387-2.1002 0.95347-3.3027 0.89453-3.3009-0.16181-5.8647-3.1766-5.6875-6.791 0.0639-1.3036 0.48375-2.4908 1.1406-3.4746 0.87724-0.46227 1.8642-0.67848 2.8672-0.63672zm-4.8223 2.4004c-0.1402 0.53394-0.24524 1.0831-0.27344 1.6582-0.19634 4.0052 2.5691 7.4617 6.2832 7.8887-1.7413 0.13403-3.5909-0.50523-5.0059-1.9316-2.1667-2.1842-2.4903-5.3773-1.0039-7.6152zm-24.539 1.7559 10.99 0.72461-14.396 14.158-12.316-1.6191zm16.018 11.338 0.80764 0.81886-5.9404 3.1636c-6.4605 6.1207-13.041 12.106-19.559 18.166l-0.68164-0.77148c6.7139-6.7488 12.447-11.829 19.645-18.166zm14.721 9.3281 1.0957 12.051-16.887 16.465 0.58984-14.008c4.3774-3.9622 10.723-10.066 15.201-14.508zm-32.848 3.3789-2.1201 2.0332c-1.3193-0.73667-1.5139-1.4733-1.6802-2.21 1.5341 0.14285 2.5028 0.29179 3.8004 0.17678zm-6.3672 2.6836s3.1247 0.43366 3.4004 0.41406l-1.8242 1.6191c-0.78383-0.4594-1.5728-1.7621-1.5762-2.0332zm-0.40625 1.4922c0.13552 0.243 0.88931 1.2139 1.0664 1.5156l-2.5078 2.5704c-0.92148-0.6163-1.676-2.7405-1.729-3.6509zm12.502 1.877c0.85052 0.7612 3.1182 2.5625 4.127 3.3145-0.13822 1.4894-0.48555 2.3283-0.74414 3.8379-2.3933-1.4991-5.9394-3.9775-7.5605-5.7598zm-17.387 0.95312c0.17676 0.2901 0.60584 1.107 0.80859 1.4102 0.20666 0.309 0.64849 1.099 0.87891 1.418-2.5331 0.1225-5.2168 0.28268-7.3809 1.2051-2.7444 1.1697-4.9874 2.7715-6.1543 4.6191-3.5138 5.564-6.1971 9.3714-8.291 16.543-0.83533 2.861-1.3057 3.8751-0.92383 7.3926 2.9308-10.832 6.0937-15.977 10.531-23.004 0.82801-1.3111 2.8724-3.2318 5.3711-4.2969 2.356-1.0043 5.0279-1.5552 7.7402-1.4648 0.20813 0.2559 1.0846 1.3742 1.3008 1.6289-0.86993 0.3838-2.4287 0.47417-4.0449 1.293-2.5968 1.3156-5.5992 2.9964-7.3984 4.7578-1.8916 1.8517-4.2847 5.1916-5.9023 8.1992s-2.5371 7.1289-2.5371 7.1289c1.5501-2.7551 2.97-5.3505 3.9863-6.7773 1.9434-2.7281 4.2491-5.7322 5.7637-7.2148 1.4611-1.4304 4.4033-3.1438 6.9336-4.4258 2.0781-1.0529 3.1846-1.9729 3.7637-2.2207 0.39964 0.4346 1.536 1.5319 1.9414 1.9414-0.22476 0.5518-1.198 1.7025-2.2324 3.832-1.2393 2.5515-2.9029 5.5211-4.3086 7.0059-1.3797 1.4574-5.6482 4.3479-9.4297 6.3945-2.8937 1.566-4.8164 2.4357-7.418 3.4727 0 0 4.329-0.28589 8.2051-2.2754s8.1048-4.3006 10.002-6.3047c1.731-1.8285 3.3609-4.8561 4.6328-7.4746 0.74732-1.5386 0.81288-3.1544 1.1895-4.043 0.17924 0.1703 1.6954 1.5364 1.877 1.7051-0.5109 2.2563-0.58292 3.6141-1.252 5.7539-0.75366 2.4104-2.4559 4.4988-3.9727 5.5859-7.9538 5.7007-17.783 10.273-25.793 13.234 3.0936 0.6121 7.3311-1.0956 9.2129-1.8496 5.9852-2.3984 11.623-5.5326 17.668-9.8652 2.0228-1.4498 3.3713-3.8866 4.2031-6.5469 0.55457-1.7737 0.51991-3.8492 0.60156-5.6504 0.72635 0.6213 2.2437 1.8764 2.9316 2.3945-1.5812 5.5443-2.0635 8.9406-6.7871 12.254-8.9442 6.2739-18.208 11.741-30.109 11.049 1.3978-10.806 4.3662-21.296 11.885-31.059 0.99349-1.29 2.8261-2.6803 5.3301-3.5195 2.2231-0.745 4.7538-1.5122 7.1777-2.2266zm12.207 0.77539c1.6347 1.9201 5.2034 4.5066 7.3613 5.7266l-0.56836 3.0664c-1.8206-1.0624-7.2433-4.9904-9.7695-7.6016zm-4.0664 1.6445c2.4084 2.6951 6.1001 5.6282 9.2832 7.4434l-0.60938 3.0352c-0.23839 0.3337-8.6307-4.792-11.787-9.5444zm-6.2148 6.8789c-0.85669 0.14483-5.8519 3.3179-7.0801 4.7012-0.86288 0.9719-2.1104 2.7956-3.1992 4.4297-1.0888 1.634-1.9844 3.0488-1.9844 3.0488l-1.791 2.832 3-1.4941s1.4261-0.71162 3.0957-1.6406c1.6696-0.929 3.5568-2.0335 4.6602-3.0293 1.5453-1.3947 5.8484-9.0768 4.3066-6.9551-1.8306 2.5192-3.8664 4.3059-5.5625 5.5645-0.82733 0.614-4.5598 3.6551-6.1406 4.543 1.0691-1.6028 4.4294-5.2445 5.0156-6.0547 0.94229-1.3023 3.3168-3.2521 5.5156-5.5039 0.34022-0.34841 0.36176-0.47483 0.16406-0.44141z" color="#000000" color-rendering="auto" fill="#5f78ad" image-rendering="auto" shape-rendering="auto" solid-color="#000000" style="block-progression:tb;isolation:auto;mix-blend-mode:normal;text-decoration-color:#000000;text-decoration-line:none;text-decoration-style:solid;text-indent:0;text-transform:none;white-space:normal"/>
  <path d="m101.25 951.99s1.0847 6.6836-1.1738 9.8379c-2.0651 2.8841-1.3105 10.188-1.3105 10.188-0.77374-0.34454-2.8126-1.6202-3.9336-2.2988-2.3996-1.4527-5.1578-3.4629-6.5547-4.8711-1.4071-1.4184-3.4154-4.1722-4.8574-6.5684-0.68307-1.135-1.0274-1.4201-1.3574-2.1934zm-20.641 4.748c0.40342 0.86558 0.4299 1.148 1.0391 2.1602 1.5438 2.5652 3.5504 5.3742 5.293 7.1308 1.7527 1.7669 4.5704 3.7721 7.1309 5.3223 1.0636 0.64394 2.8854 1.5424 3.7734 1.959 1.0358 0.29362 2.0716 0.4414 3.1074-0.19716l2.5527-23.443c-8.0233 0.89463-16.27 1.8014-23.82 2.6348 0.0062 1.1761 0.21359 2.5534 0.92383 4.4336z" color="#000000" color-rendering="auto" fill="#ac0014" image-rendering="auto" shape-rendering="auto" solid-color="#000000" style="block-progression:tb;isolation:auto;mix-blend-mode:normal;text-decoration-color:#000000;text-decoration-line:none;text-decoration-style:solid;text-indent:0;text-transform:none;white-space:normal"/>
  <path d="m34.622 1002.5c-2.2634 0.6541-4.6568 1.2658-6.8711 2.0078-2.6285 0.8809-4.8266 2.0863-6.4551 3.7148 0 0-0.0087 0.01-0.01172 0.01-0.0032 0-0.0078 0.012-0.0078 0.012-7.2786 10.936-11.077 21.65-12.438 33.018l-0.11328 0.9565 0.95898 0.088c13.169 1.1895 24.992-6.6051 32.08-11.578 7.0885-4.973 6.0979-10.553 7.0508-12.982-6.0992-4.1969-10.927-9.2164-14.193-15.246zm0.63477 1.1562c0.17676 0.2901 0.60584 1.107 0.80859 1.4102 0.20666 0.309 0.64849 1.0989 0.87891 1.4179-2.5331 0.1225-5.2168 0.2827-7.3809 1.2051-2.7444 1.1697-4.9874 2.7716-6.1543 4.6192-3.5138 5.564-6.1971 9.3713-8.291 16.543-0.83533 2.861-1.3057 3.8751-0.92383 7.3926 2.9308-10.832 6.0937-15.977 10.531-23.004 0.82801-1.3111 2.8724-3.2318 5.3711-4.2969 2.356-1.0043 5.0279-1.5552 7.7402-1.4648 0.20813 0.2559 1.0846 1.3742 1.3008 1.6289-0.86993 0.3838-2.4287 0.4741-4.0449 1.2929-2.5968 1.3156-5.5992 2.9965-7.3984 4.7579-1.8916 1.8517-4.2847 5.1916-5.9023 8.1992s-2.5371 7.1289-2.5371 7.1289c1.5501-2.7551 2.97-5.3506 3.9863-6.7774 1.9434-2.7281 4.2491-5.7322 5.7637-7.2148 1.4611-1.4304 4.4033-3.1438 6.9336-4.4258 2.0781-1.0529 3.1846-1.9729 3.7637-2.2207 0.39964 0.4346 1.536 1.5319 1.9414 1.9414-0.22476 0.5518-1.198 1.7026-2.2324 3.8321-1.2393 2.5515-2.9029 5.521-4.3086 7.0058-1.3797 1.4574-5.6482 4.3479-9.4297 6.3945-2.8937 1.566-4.8164 2.4357-7.418 3.4727 0 0 4.329-0.2859 8.2051-2.2754s8.1048-4.3006 10.002-6.3047c1.731-1.8285 3.3609-4.8561 4.6328-7.4746 0.74732-1.5386 0.81288-3.1544 1.1895-4.043 0.17924 0.1703 1.6954 1.5364 1.877 1.7051-0.5109 2.2563-0.58292 3.6141-1.252 5.7539-0.75366 2.4104-2.4559 4.4989-3.9727 5.586-7.9538 5.7007-17.783 10.273-25.793 13.234 3.0936 0.6121 7.3311-1.0956 9.2129-1.8496 5.9852-2.3984 11.623-5.5326 17.668-9.8652 2.0228-1.4498 3.3713-3.8866 4.2031-6.5469 0.55457-1.7737 0.51991-3.8492 0.60156-5.6504 0.72635 0.6213 2.2437 1.8765 2.9316 2.3946-1.5812 5.5443-2.0635 8.9406-6.7871 12.254-8.9442 6.2739-18.208 11.741-30.109 11.049 1.3978-10.806 4.3662-21.296 11.885-31.059 0.99349-1.29 2.8261-2.6803 5.3301-3.5195 2.2231-0.745 4.7538-1.5122 7.1777-2.2266zm1.9258 9.2988c-0.85669 0.1449-5.8519 3.3179-7.0801 4.7012-0.86288 0.9719-2.1104 2.7956-3.1992 4.4297-1.0888 1.634-1.9844 3.0488-1.9844 3.0488l-1.791 2.8321 3-1.4942s1.4261-0.7116 3.0957-1.6406 3.5568-2.0335 4.6602-3.0293c1.5453-1.3947 5.8484-9.0768 4.3066-6.9551-1.8306 2.5192-3.8664 4.3059-5.5625 5.5645-0.82733 0.614-4.5598 3.655-6.1406 4.5429 1.0691-1.6028 4.4294-5.2445 5.0156-6.0547 0.94229-1.3023 3.3168-3.2521 5.5156-5.5039 0.34022-0.3484 0.36176-0.4748 0.16406-0.4414z" color="#000000" color-rendering="auto" fill="#b77d00" image-rendering="auto" shape-rendering="auto" solid-color="#000000" style="block-progression:tb;isolation:auto;mix-blend-mode:normal;text-decoration-color:#000000;text-decoration-line:none;text-decoration-style:solid;text-indent:0;text-transform:none;white-space:normal"/>
 </g>
</svg>
